<mxfile host="app.diagrams.net" agent="Mozilla/5.0 (Windows NT 10.0; Win64; x64) AppleWebKit/537.36 (KHTML, like Gecko) Chrome/132.0.0.0 Safari/537.36" version="26.0.13">
  <diagram id="prtHgNgQTEPvFCAcTncT" name="Page-1">
    <mxGraphModel dx="1761" dy="534" grid="1" gridSize="10" guides="1" tooltips="1" connect="1" arrows="1" fold="1" page="1" pageScale="1" pageWidth="827" pageHeight="1169" math="0" shadow="0">
      <root>
        <mxCell id="0" />
        <mxCell id="1" parent="0" />
        <mxCell id="dNxyNK7c78bLwvsdeMH5-11" value="Group Voice Call" style="swimlane;startSize=20;horizontal=1;containerType=tree;glass=0;labelBackgroundColor=default;fontFamily=Helvetica;fontStyle=0;align=center;" parent="1" vertex="1">
          <mxGeometry x="-510" y="200" width="1380" height="820" as="geometry" />
        </mxCell>
        <UserObject label="           CONNECTED&#xa;                 CALL" name="Tessa Miller" position="CFO" location="Office 1" email="me@example.com" placeholders="1" id="dNxyNK7c78bLwvsdeMH5-12">
          <mxCell style="label;image=https://cdn3.iconfinder.com/data/icons/user-avatars-1/512/users-3-128.png;whiteSpace=wrap;rounded=0;glass=0;treeMoving=1;treeFolding=1;fontFamily=Helvetica;fontStyle=1;align=center;" parent="dNxyNK7c78bLwvsdeMH5-11" vertex="1">
            <mxGeometry x="274" y="30" width="180" height="90" as="geometry" />
          </mxCell>
        </UserObject>
        <mxCell id="dNxyNK7c78bLwvsdeMH5-13" value="" style="endArrow=blockThin;endFill=1;fontSize=11;edgeStyle=elbowEdgeStyle;elbow=vertical;rounded=0;fontFamily=Helvetica;fontStyle=0;align=center;" parent="dNxyNK7c78bLwvsdeMH5-11" source="dNxyNK7c78bLwvsdeMH5-12" target="dNxyNK7c78bLwvsdeMH5-14" edge="1">
          <mxGeometry relative="1" as="geometry">
            <Array as="points">
              <mxPoint x="240" y="130" />
            </Array>
          </mxGeometry>
        </mxCell>
        <UserObject label="JANE" name="Edward Morrison" position="Brand Manager" location="Office 2" email="me@example.com" placeholders="1" link="https://www.draw.io" id="dNxyNK7c78bLwvsdeMH5-14">
          <mxCell style="label;image=https://cdn3.iconfinder.com/data/icons/user-avatars-1/512/users-10-3-128.png;whiteSpace=wrap;rounded=0;glass=0;treeFolding=1;treeMoving=1;fontFamily=Helvetica;fontStyle=0;align=center;" parent="dNxyNK7c78bLwvsdeMH5-11" vertex="1">
            <mxGeometry x="10" y="170" width="180" height="70" as="geometry" />
          </mxCell>
        </UserObject>
        <mxCell id="dNxyNK7c78bLwvsdeMH5-15" value="" style="endArrow=blockThin;endFill=1;fontSize=11;edgeStyle=elbowEdgeStyle;elbow=vertical;rounded=0;fontFamily=Helvetica;fontStyle=1;align=center;" parent="dNxyNK7c78bLwvsdeMH5-11" source="dNxyNK7c78bLwvsdeMH5-12" target="dNxyNK7c78bLwvsdeMH5-16" edge="1">
          <mxGeometry relative="1" as="geometry">
            <Array as="points">
              <mxPoint x="364" y="145" />
            </Array>
          </mxGeometry>
        </mxCell>
        <UserObject label="JARED" name="Evan Valet" position="HR Director" location="Office 4" email="me@example.com" placeholders="1" id="dNxyNK7c78bLwvsdeMH5-16">
          <mxCell style="label;image=https://cdn3.iconfinder.com/data/icons/user-avatars-1/512/users-9-2-128.png;whiteSpace=wrap;rounded=0;glass=0;treeFolding=1;treeMoving=1;fontFamily=Helvetica;fontStyle=1;align=center;" parent="dNxyNK7c78bLwvsdeMH5-11" vertex="1">
            <mxGeometry x="270" y="170" width="170" height="80" as="geometry" />
          </mxCell>
        </UserObject>
        <mxCell id="dNxyNK7c78bLwvsdeMH5-17" value="" style="endArrow=blockThin;endFill=1;fontSize=11;edgeStyle=elbowEdgeStyle;elbow=vertical;rounded=0;entryX=0.571;entryY=0.017;entryDx=0;entryDy=0;entryPerimeter=0;fontFamily=Helvetica;fontStyle=1;align=center;" parent="dNxyNK7c78bLwvsdeMH5-11" target="dNxyNK7c78bLwvsdeMH5-18" edge="1">
          <mxGeometry relative="1" as="geometry">
            <mxPoint x="364" y="130" as="sourcePoint" />
            <mxPoint x="570" y="180" as="targetPoint" />
            <Array as="points">
              <mxPoint x="480" y="130" />
            </Array>
          </mxGeometry>
        </mxCell>
        <UserObject label="JOY" name="Alison Donovan" position="System Admin" location="Office 3" email="me@example.com" placeholders="1" link="https://www.draw.io" id="dNxyNK7c78bLwvsdeMH5-18">
          <mxCell style="label;image=https://cdn3.iconfinder.com/data/icons/user-avatars-1/512/users-2-128.png;whiteSpace=wrap;rounded=0;glass=0;fontFamily=Helvetica;fontStyle=1;align=center;" parent="dNxyNK7c78bLwvsdeMH5-11" vertex="1">
            <mxGeometry x="510" y="170" width="160" height="70" as="geometry" />
          </mxCell>
        </UserObject>
        <mxCell id="gDlNZjopztYggYN4bH45-1" value="" style="edgeStyle=orthogonalEdgeStyle;rounded=0;orthogonalLoop=1;jettySize=auto;fontFamily=Helvetica;fontStyle=1;align=center;" edge="1" source="dNxyNK7c78bLwvsdeMH5-12" target="gDlNZjopztYggYN4bH45-2" parent="dNxyNK7c78bLwvsdeMH5-11">
          <mxGeometry relative="1" as="geometry">
            <Array as="points">
              <mxPoint x="364" y="130" />
              <mxPoint x="810" y="130" />
              <mxPoint x="810" y="190" />
            </Array>
          </mxGeometry>
        </mxCell>
        <UserObject label="JOHN" name="Tessa Miller" position="CFO" location="Office 1" email="me@example.com" placeholders="1" link="https://www.draw.io" id="gDlNZjopztYggYN4bH45-2">
          <mxCell style="label;image=https://cdn3.iconfinder.com/data/icons/user-avatars-1/512/users-3-128.png;whiteSpace=wrap;rounded=0;glass=0;treeMoving=1;treeFolding=1;fontFamily=Helvetica;fontStyle=1;align=center;" vertex="1" parent="dNxyNK7c78bLwvsdeMH5-11">
            <mxGeometry x="750" y="170" width="260" height="80" as="geometry" />
          </mxCell>
        </UserObject>
        <mxCell id="gDlNZjopztYggYN4bH45-4" value="" style="sketch=0;pointerEvents=1;shadow=0;dashed=0;strokeColor=none;fillColor=#505050;labelPosition=center;verticalLabelPosition=bottom;verticalAlign=top;outlineConnect=0;align=center;shape=mxgraph.office.communications.3rd_party_call_center_solution;fontFamily=Helvetica;fontStyle=1;" vertex="1" parent="dNxyNK7c78bLwvsdeMH5-11">
          <mxGeometry x="280" y="40" width="80" height="70" as="geometry" />
        </mxCell>
        <mxCell id="gDlNZjopztYggYN4bH45-10" value="WatchingTikTok" style="rounded=1;whiteSpace=wrap;fontFamily=Helvetica;fontStyle=0;align=center;" vertex="1" parent="dNxyNK7c78bLwvsdeMH5-11">
          <mxGeometry x="10" y="240" width="180" height="40" as="geometry" />
        </mxCell>
        <mxCell id="gDlNZjopztYggYN4bH45-15" value="AnsweringWhatsApp" style="rounded=1;whiteSpace=wrap;fontFamily=Helvetica;fontStyle=1;align=center;" vertex="1" parent="dNxyNK7c78bLwvsdeMH5-11">
          <mxGeometry x="270" y="242.5" width="171.5" height="35" as="geometry" />
        </mxCell>
        <mxCell id="gDlNZjopztYggYN4bH45-14" value="SpeakingInCall" style="rounded=1;whiteSpace=wrap;fontFamily=Helvetica;fontStyle=0;align=center;" vertex="1" parent="dNxyNK7c78bLwvsdeMH5-11">
          <mxGeometry x="267" y="516" width="160" height="40" as="geometry" />
        </mxCell>
        <mxCell id="gDlNZjopztYggYN4bH45-13" value="SocialMediaMultitask" style="rounded=1;whiteSpace=wrap;fontFamily=Helvetica;fontStyle=1;align=center;" vertex="1" parent="dNxyNK7c78bLwvsdeMH5-11">
          <mxGeometry x="507" y="240" width="163" height="40" as="geometry" />
        </mxCell>
        <mxCell id="gDlNZjopztYggYN4bH45-16" value="VoiceContribution" style="rounded=1;whiteSpace=wrap;arcSize=43;fontFamily=Helvetica;fontStyle=0;align=center;" vertex="1" parent="dNxyNK7c78bLwvsdeMH5-11">
          <mxGeometry x="500" y="520" width="157" height="56" as="geometry" />
        </mxCell>
        <mxCell id="gDlNZjopztYggYN4bH45-18" value="&#xa;InCall&#xa;" style="rounded=1;whiteSpace=wrap;fontFamily=Helvetica;fontStyle=0;align=center;" vertex="1" parent="dNxyNK7c78bLwvsdeMH5-11">
          <mxGeometry x="750" y="240" width="260" height="40" as="geometry" />
        </mxCell>
        <mxCell id="gDlNZjopztYggYN4bH45-19" value="MissedCalls" style="rounded=1;whiteSpace=wrap;fontFamily=Helvetica;fontStyle=0;align=center;" vertex="1" parent="dNxyNK7c78bLwvsdeMH5-11">
          <mxGeometry x="710" y="430" width="150" height="60" as="geometry" />
        </mxCell>
        <mxCell id="gDlNZjopztYggYN4bH45-17" value="CheckMessages" style="rounded=1;whiteSpace=wrap;fontFamily=Helvetica;fontStyle=0;align=center;" vertex="1" parent="dNxyNK7c78bLwvsdeMH5-11">
          <mxGeometry x="1060" y="340" width="150" height="60" as="geometry" />
        </mxCell>
        <mxCell id="gDlNZjopztYggYN4bH45-22" value="ForwardingFacebook" style="rounded=1;whiteSpace=wrap;fontFamily=Helvetica;fontStyle=0;align=center;" vertex="1" parent="dNxyNK7c78bLwvsdeMH5-11">
          <mxGeometry y="500" width="190" height="40" as="geometry" />
        </mxCell>
        <mxCell id="gDlNZjopztYggYN4bH45-25" value="" style="curved=1;endArrow=classic;rounded=0;exitX=0.33;exitY=-0.085;exitDx=0;exitDy=0;fontStyle=0;fontFamily=Helvetica;entryX=0.424;entryY=0.964;entryDx=0;entryDy=0;entryPerimeter=0;exitPerimeter=0;align=center;" edge="1" parent="dNxyNK7c78bLwvsdeMH5-11" source="gDlNZjopztYggYN4bH45-22" target="gDlNZjopztYggYN4bH45-10">
          <mxGeometry width="50" height="50" relative="1" as="geometry">
            <mxPoint x="10" y="320" as="sourcePoint" />
            <mxPoint x="60" y="270" as="targetPoint" />
            <Array as="points">
              <mxPoint x="-20" y="380" />
            </Array>
          </mxGeometry>
        </mxCell>
        <mxCell id="gDlNZjopztYggYN4bH45-26" value="(AFTER FOWARDING)" style="edgeLabel;align=center;verticalAlign=middle;resizable=0;points=[];fontFamily=Helvetica;fontStyle=0;" vertex="1" connectable="0" parent="gDlNZjopztYggYN4bH45-25">
          <mxGeometry x="-0.3495" y="-6" relative="1" as="geometry">
            <mxPoint as="offset" />
          </mxGeometry>
        </mxCell>
        <mxCell id="gDlNZjopztYggYN4bH45-31" value="" style="curved=1;endArrow=classic;rounded=0;fontFamily=Helvetica;fontStyle=0;exitX=0.75;exitY=1;exitDx=0;exitDy=0;entryX=0.737;entryY=0;entryDx=0;entryDy=0;entryPerimeter=0;align=center;" edge="1" parent="dNxyNK7c78bLwvsdeMH5-11" source="gDlNZjopztYggYN4bH45-10" target="gDlNZjopztYggYN4bH45-22">
          <mxGeometry width="50" height="50" relative="1" as="geometry">
            <mxPoint x="180" y="270" as="sourcePoint" />
            <mxPoint x="230" y="220" as="targetPoint" />
            <Array as="points">
              <mxPoint x="180" y="350" />
              <mxPoint x="180" y="410" />
            </Array>
          </mxGeometry>
        </mxCell>
        <mxCell id="gDlNZjopztYggYN4bH45-32" value="(Interesting clip found)" style="edgeLabel;align=center;verticalAlign=middle;resizable=0;points=[];fontFamily=Helvetica;fontStyle=0;" vertex="1" connectable="0" parent="gDlNZjopztYggYN4bH45-31">
          <mxGeometry x="-0.0236" y="-3" relative="1" as="geometry">
            <mxPoint x="-27" y="12" as="offset" />
          </mxGeometry>
        </mxCell>
        <mxCell id="gDlNZjopztYggYN4bH45-34" value="" style="curved=1;endArrow=classic;rounded=0;exitX=0.214;exitY=-0.1;exitDx=0;exitDy=0;fontStyle=0;exitPerimeter=0;fontFamily=Helvetica;align=center;" edge="1" parent="dNxyNK7c78bLwvsdeMH5-11" source="gDlNZjopztYggYN4bH45-14" target="gDlNZjopztYggYN4bH45-15">
          <mxGeometry width="50" height="50" relative="1" as="geometry">
            <mxPoint x="83" y="350" as="sourcePoint" />
            <mxPoint x="70" y="280" as="targetPoint" />
            <Array as="points">
              <mxPoint x="250" y="310" />
            </Array>
          </mxGeometry>
        </mxCell>
        <mxCell id="gDlNZjopztYggYN4bH45-35" value="Prompt to speak" style="edgeLabel;align=center;verticalAlign=middle;resizable=0;points=[];fontFamily=Helvetica;fontStyle=0;" vertex="1" connectable="0" parent="gDlNZjopztYggYN4bH45-34">
          <mxGeometry x="-0.3495" y="-6" relative="1" as="geometry">
            <mxPoint x="155" y="-9" as="offset" />
          </mxGeometry>
        </mxCell>
        <mxCell id="gDlNZjopztYggYN4bH45-38" value="" style="curved=1;endArrow=classic;rounded=0;exitX=0.75;exitY=1;exitDx=0;exitDy=0;entryX=0.903;entryY=-0.105;entryDx=0;entryDy=0;entryPerimeter=0;fontFamily=Helvetica;fontStyle=0;align=center;" edge="1" parent="dNxyNK7c78bLwvsdeMH5-11" source="gDlNZjopztYggYN4bH45-15" target="gDlNZjopztYggYN4bH45-14">
          <mxGeometry width="50" height="50" relative="1" as="geometry">
            <mxPoint x="513" y="251.25" as="sourcePoint" />
            <mxPoint x="490" y="408.75" as="targetPoint" />
            <Array as="points">
              <mxPoint x="470" y="350" />
            </Array>
          </mxGeometry>
        </mxCell>
        <mxCell id="gDlNZjopztYggYN4bH45-39" value="After Speaking" style="edgeLabel;align=center;verticalAlign=middle;resizable=0;points=[];fontFamily=Helvetica;fontStyle=0;" vertex="1" connectable="0" parent="gDlNZjopztYggYN4bH45-38">
          <mxGeometry x="-0.0236" y="-3" relative="1" as="geometry">
            <mxPoint x="-175" y="-19" as="offset" />
          </mxGeometry>
        </mxCell>
        <mxCell id="gDlNZjopztYggYN4bH45-40" value="" style="curved=1;endArrow=classic;rounded=0;fontStyle=0;fontFamily=Helvetica;align=center;" edge="1" parent="dNxyNK7c78bLwvsdeMH5-11" source="gDlNZjopztYggYN4bH45-16">
          <mxGeometry width="50" height="50" relative="1" as="geometry">
            <mxPoint x="533" y="435.5" as="sourcePoint" />
            <mxPoint x="542" y="277.5" as="targetPoint" />
            <Array as="points">
              <mxPoint x="470" y="386" />
            </Array>
          </mxGeometry>
        </mxCell>
        <mxCell id="gDlNZjopztYggYN4bH45-41" value="Prompt to contribute" style="edgeLabel;align=center;verticalAlign=middle;resizable=0;points=[];fontFamily=Helvetica;fontStyle=0;" vertex="1" connectable="0" parent="gDlNZjopztYggYN4bH45-40">
          <mxGeometry x="-0.3495" y="-6" relative="1" as="geometry">
            <mxPoint x="102" y="-37" as="offset" />
          </mxGeometry>
        </mxCell>
        <mxCell id="gDlNZjopztYggYN4bH45-44" value="" style="curved=1;endArrow=classic;rounded=0;fontFamily=Helvetica;fontStyle=0;align=center;" edge="1" parent="dNxyNK7c78bLwvsdeMH5-11" target="gDlNZjopztYggYN4bH45-16">
          <mxGeometry width="50" height="50" relative="1" as="geometry">
            <mxPoint x="630" y="276" as="sourcePoint" />
            <mxPoint x="633" y="428" as="targetPoint" />
            <Array as="points">
              <mxPoint x="690" y="396" />
            </Array>
          </mxGeometry>
        </mxCell>
        <mxCell id="gDlNZjopztYggYN4bH45-45" value="contiinues multitasking" style="edgeLabel;align=center;verticalAlign=middle;resizable=0;points=[];fontFamily=Helvetica;fontStyle=0;" vertex="1" connectable="0" parent="gDlNZjopztYggYN4bH45-44">
          <mxGeometry x="-0.0236" y="-3" relative="1" as="geometry">
            <mxPoint x="-144" y="-32" as="offset" />
          </mxGeometry>
        </mxCell>
        <mxCell id="gDlNZjopztYggYN4bH45-46" value="AnsweredCall" style="rounded=1;whiteSpace=wrap;fontFamily=Helvetica;fontStyle=0;align=center;" vertex="1" parent="dNxyNK7c78bLwvsdeMH5-11">
          <mxGeometry x="890" y="430" width="170" height="60" as="geometry" />
        </mxCell>
        <mxCell id="gDlNZjopztYggYN4bH45-47" value="" style="endArrow=classic;rounded=0;exitX=0.37;exitY=0.005;exitDx=0;exitDy=0;exitPerimeter=0;fontFamily=Helvetica;fontStyle=0;align=center;" edge="1" parent="dNxyNK7c78bLwvsdeMH5-11" source="gDlNZjopztYggYN4bH45-19">
          <mxGeometry width="50" height="50" relative="1" as="geometry">
            <mxPoint x="760" y="370" as="sourcePoint" />
            <mxPoint x="840" y="280" as="targetPoint" />
          </mxGeometry>
        </mxCell>
        <mxCell id="gDlNZjopztYggYN4bH45-48" value="(remains in call)" style="edgeLabel;align=center;verticalAlign=middle;resizable=0;points=[];fontFamily=Helvetica;fontStyle=0;" vertex="1" connectable="0" parent="gDlNZjopztYggYN4bH45-47">
          <mxGeometry x="0.052" relative="1" as="geometry">
            <mxPoint as="offset" />
          </mxGeometry>
        </mxCell>
        <mxCell id="gDlNZjopztYggYN4bH45-49" value="" style="curved=1;endArrow=classic;rounded=0;entryX=0.125;entryY=0.035;entryDx=0;entryDy=0;entryPerimeter=0;exitX=0.21;exitY=0.987;exitDx=0;exitDy=0;exitPerimeter=0;fontFamily=Helvetica;fontStyle=0;align=center;" edge="1" parent="dNxyNK7c78bLwvsdeMH5-11" source="gDlNZjopztYggYN4bH45-18" target="gDlNZjopztYggYN4bH45-19">
          <mxGeometry width="50" height="50" relative="1" as="geometry">
            <mxPoint x="751" y="131" as="sourcePoint" />
            <mxPoint x="720" y="375" as="targetPoint" />
            <Array as="points">
              <mxPoint x="683" y="310" />
            </Array>
          </mxGeometry>
        </mxCell>
        <mxCell id="gDlNZjopztYggYN4bH45-55" value="first 2 calls missed" style="edgeLabel;align=center;verticalAlign=middle;resizable=0;points=[];fontFamily=Helvetica;fontStyle=0;" vertex="1" connectable="0" parent="gDlNZjopztYggYN4bH45-49">
          <mxGeometry x="0.2269" y="25" relative="1" as="geometry">
            <mxPoint x="1" as="offset" />
          </mxGeometry>
        </mxCell>
        <mxCell id="gDlNZjopztYggYN4bH45-56" value="" style="endArrow=classic;rounded=0;entryX=0.5;entryY=0;entryDx=0;entryDy=0;exitX=0.618;exitY=0.987;exitDx=0;exitDy=0;exitPerimeter=0;fontFamily=Helvetica;fontStyle=0;align=center;" edge="1" parent="dNxyNK7c78bLwvsdeMH5-11" source="gDlNZjopztYggYN4bH45-18" target="gDlNZjopztYggYN4bH45-46">
          <mxGeometry width="50" height="50" relative="1" as="geometry">
            <mxPoint x="932" y="290" as="sourcePoint" />
            <mxPoint x="620" y="260" as="targetPoint" />
          </mxGeometry>
        </mxCell>
        <mxCell id="gDlNZjopztYggYN4bH45-57" value="last call answered" style="edgeLabel;align=center;verticalAlign=middle;resizable=0;points=[];fontFamily=Helvetica;fontStyle=0;" vertex="1" connectable="0" parent="gDlNZjopztYggYN4bH45-56">
          <mxGeometry x="-0.0401" y="1" relative="1" as="geometry">
            <mxPoint x="1" as="offset" />
          </mxGeometry>
        </mxCell>
        <mxCell id="gDlNZjopztYggYN4bH45-58" value="" style="curved=1;endArrow=classic;rounded=0;fontStyle=0;exitX=1;exitY=0.75;exitDx=0;exitDy=0;entryX=0.667;entryY=1;entryDx=0;entryDy=0;entryPerimeter=0;fontFamily=Helvetica;align=center;" edge="1" parent="dNxyNK7c78bLwvsdeMH5-11" source="gDlNZjopztYggYN4bH45-46">
          <mxGeometry width="50" height="50" relative="1" as="geometry">
            <mxPoint x="1050" y="460" as="sourcePoint" />
            <mxPoint x="1150.0500000000002" y="400" as="targetPoint" />
            <Array as="points">
              <mxPoint x="1170" y="510" />
            </Array>
          </mxGeometry>
        </mxCell>
        <mxCell id="gDlNZjopztYggYN4bH45-59" value="After call, check texts" style="edgeLabel;align=center;verticalAlign=middle;resizable=0;points=[];fontFamily=Helvetica;fontStyle=0;" vertex="1" connectable="0" parent="gDlNZjopztYggYN4bH45-58">
          <mxGeometry x="-0.3495" y="-6" relative="1" as="geometry">
            <mxPoint x="50" y="-56" as="offset" />
          </mxGeometry>
        </mxCell>
        <mxCell id="gDlNZjopztYggYN4bH45-60" value="" style="endArrow=classic;rounded=0;entryX=0.897;entryY=1.002;entryDx=0;entryDy=0;entryPerimeter=0;exitX=0.5;exitY=0;exitDx=0;exitDy=0;fontFamily=Helvetica;fontStyle=0;align=center;" edge="1" parent="dNxyNK7c78bLwvsdeMH5-11" source="gDlNZjopztYggYN4bH45-17" target="gDlNZjopztYggYN4bH45-18">
          <mxGeometry width="50" height="50" relative="1" as="geometry">
            <mxPoint x="860" y="450" as="sourcePoint" />
            <mxPoint x="910" y="400" as="targetPoint" />
          </mxGeometry>
        </mxCell>
        <mxCell id="gDlNZjopztYggYN4bH45-62" value="RETURN TO CALL" style="edgeLabel;align=center;verticalAlign=middle;resizable=0;points=[];fontFamily=Helvetica;fontStyle=0;" vertex="1" connectable="0" parent="gDlNZjopztYggYN4bH45-60">
          <mxGeometry x="0.0082" y="1" relative="1" as="geometry">
            <mxPoint x="1" as="offset" />
          </mxGeometry>
        </mxCell>
      </root>
    </mxGraphModel>
  </diagram>
</mxfile>
